<?xml version="1.0" encoding="UTF-8"?>
<svg id="uuid-ea729d05-30f7-4056-8d5e-6f109d1772af" data-name="Layer 1" xmlns="http://www.w3.org/2000/svg" viewBox="0 0 60.73 37.76">
  <defs>
    <style>
      .uuid-a40f3b28-2e50-45b0-b86f-8d6e9073ae0d {
        stroke-width: 0px;
      }
    </style>
  </defs>
  <path class="uuid-a40f3b28-2e50-45b0-b86f-8d6e9073ae0d" d="M57.59,26.34c-1.75,0-3.47.01-5.18-.05-1.22-.04-1.64.38-1.88,1.45-.51,2.29-1.71,4.18-3.85,5.42-4.24,2.46-10.35,1.53-13.63-2.07-4.8-5.28-5.38-16.71-1.19-22.92,2.73-4.02,6.6-5.42,11.42-4.69,4.39.67,6.64,3.79,7.25,6.13.31,1.17.72,1.74,1.88,1.74h5.14c1.72,0,3.12-1.34,3.12-2.99V2.99c0-1.65-1.4-2.99-3.12-2.99H24.47s-.02,0-.03,0H1.22C.6,0,.1.44,0,1.02v.02c0,.26,0,.58,0,.99v34.56c0,.65.54,1.17,1.22,1.17h56.39c1.73,0,3.12-1.34,3.12-2.99v-5.43c0-1.66-1.41-3.01-3.14-2.99ZM6.77,33.85c-.72.83-2,.8-2.95-2.8-1.39-5.28-1.57-16.71-.35-22.92.79-4.02,1.89-5.9,3.23-4.53,1.54,1.57.21,7.64.24,15.13.05,11.41,1.02,13.73-.17,15.12ZM19.21,33.85c-1.37.83-3.82.8-5.64-2.8-2.67-5.28-2.99-16.71-.66-22.92,1.52-4.02,3.61-5.9,6.17-4.53,2.94,1.57,1.13,8.54,1.15,15.27.04,10.37,1.25,13.6-1.02,14.99Z"/>
</svg>